<svg width="147" height="52" viewBox="0 0 147 52" fill="none" xmlns="http://www.w3.org/2000/svg">
<g id="logo_sasi_2438720c75 1" clip-path="url(#clip0_2_8)">
<path id="Vector" d="M131.317 28.2868V51.0489H124.695V28.2868H131.317Z" fill="white"/>
<path id="Vector_2" d="M114.475 13.8046V20.3169H95.0801C93.3457 20.3169 92.0842 20.72 91.2958 21.5574C90.5074 22.3947 90.129 23.449 90.129 24.7205C90.129 25.2787 90.2236 25.8368 90.3813 26.364C90.5389 26.8912 90.8543 27.3564 91.2958 27.7905C91.7057 28.2247 92.2735 28.5348 92.9987 28.7829C93.6925 29.0309 94.6071 29.155 95.7424 29.155H104.604C107.19 29.155 109.303 29.4652 110.943 30.1163C112.583 30.7676 113.907 31.6049 114.854 32.6283C115.8 33.6516 116.462 34.8299 116.809 36.1635C117.187 37.4659 117.345 38.7994 117.345 40.1329C117.345 41.7144 117.124 43.1719 116.683 44.4743C116.241 45.8078 115.516 46.9552 114.538 47.9476C113.561 48.9089 112.331 49.6841 110.817 50.2424C109.303 50.7695 107.442 51.0486 105.298 51.0486H84.1686V44.5364H105.519C107.316 44.5364 108.609 44.1022 109.461 43.2339C110.312 42.3966 110.722 41.2802 110.722 39.9158C110.722 39.3266 110.628 38.7373 110.438 38.1792C110.249 37.59 109.934 37.0938 109.492 36.6906C109.051 36.2565 108.42 35.9154 107.663 35.6673C106.906 35.3882 105.929 35.2641 104.793 35.2641H95.9632C93.4088 35.2641 91.3589 34.9541 89.7506 34.3339C88.1422 33.7136 86.8807 32.8764 85.9347 31.853C85.0201 30.8296 84.3893 29.6512 84.0425 28.3798C83.6955 27.0773 83.5063 25.8059 83.5063 24.5033C83.5063 22.9528 83.7271 21.5264 84.1686 20.2238C84.5786 18.9214 85.2724 17.805 86.2184 16.8437C87.1961 15.8824 88.3945 15.1381 89.9082 14.611C91.3904 14.0837 93.188 13.8046 95.3009 13.8046H114.475Z" fill="white"/>
<path id="Vector_3" d="M45.0016 51.0488H37.7168L51.0251 17.9292C51.7189 16.1926 52.728 14.9211 54.021 14.2079C55.314 13.4946 56.9539 13.1535 58.9723 13.1535C60.9591 13.1535 62.5989 13.4946 63.8919 14.2079C65.1849 14.9211 66.1625 16.1926 66.8248 17.9292L79.6286 51.0488H72.2806L60.7698 21.0923C60.4544 20.2551 59.8237 19.8208 58.9408 19.8208C58.0262 19.8208 57.3954 20.2551 57.017 21.0923L45.0016 51.0488Z" fill="white"/>
<path id="Vector_4" d="M31.0307 13.8046V20.3169H11.6043C9.90135 20.3169 8.6399 20.72 7.85149 21.5574C7.06308 22.3947 6.68465 23.449 6.68465 24.7205C6.68465 25.2787 6.74772 25.8368 6.93694 26.364C7.09461 26.8912 7.40998 27.3564 7.81995 27.7905C8.26146 28.2247 8.82912 28.5348 9.55446 28.7829C10.2483 29.0309 11.1628 29.155 12.298 29.155H21.1598C23.7457 29.155 25.8587 29.4652 27.4987 30.1163C29.1385 30.7676 30.4315 31.6049 31.4092 32.6283C32.3552 33.6516 33.0175 34.8299 33.3643 36.1635C33.7113 37.4659 33.9005 38.7994 33.9005 40.1329C33.9005 41.7144 33.6798 43.1719 33.2383 44.4743C32.7652 45.8078 32.0713 46.9552 31.0938 47.9476C30.1162 48.9089 28.8863 49.6841 27.3725 50.2424C25.8272 50.7695 23.9981 51.0486 21.8221 51.0486H0.724276V44.5364H22.0428C23.8404 44.5364 25.1649 44.1022 26.0164 43.2339C26.8679 42.3966 27.2779 41.2802 27.2779 39.9158C27.2779 39.3266 27.1832 38.7373 26.994 38.1792C26.8048 37.59 26.4894 37.0938 26.048 36.6906C25.5749 36.2565 24.9757 35.9154 24.2189 35.6673C23.462 35.3882 22.4844 35.2641 21.3175 35.2641H12.5188C9.96442 35.2641 7.88303 34.9541 6.27467 34.3339C4.66631 33.7136 3.40486 32.8764 2.4903 31.853C1.57575 30.8296 0.94503 29.6512 0.598129 28.3798C0.219694 27.0773 0.0620117 25.8059 0.0620117 24.5033C0.0620117 22.9528 0.282767 21.5264 0.692739 20.2238C1.13425 18.9214 1.82804 17.805 2.77413 16.8437C3.72022 15.8824 4.95014 15.1381 6.46389 14.611C7.9461 14.0837 9.74366 13.8046 11.825 13.8046H31.0307Z" fill="white"/>
<path id="Vector_5" d="M134.248 19.1694C134.248 15.7893 131.443 13.0603 128.005 13.0603C124.567 13.0603 121.792 15.7893 121.792 19.1694C121.792 22.5496 124.567 25.3096 128.005 25.3096C131.443 25.3096 134.248 22.5496 134.248 19.1694Z" fill="white"/>
<path id="Vector_6" d="M132.325 22.6426C132.514 22.4876 132.767 22.7046 132.641 22.8906C132.641 22.8906 132.641 22.9217 132.61 22.9217C131.475 24.2551 129.803 25.0614 128.005 25.0614C124.725 25.0614 122.045 22.4255 122.045 19.1694C122.045 17.7428 122.58 16.3474 123.59 15.262C123.747 15.0759 124 15.2931 123.874 15.4791C122.612 17.2777 122.738 19.1694 122.738 19.1694C122.738 22.0223 125.104 24.3482 128.005 24.3482C128.005 24.3482 130.181 24.5653 132.325 22.6426Z" fill="white" fill-opacity="0.768627"/>
<path id="Vector_7" d="M132.798 19.1694C132.798 16.5645 130.652 14.4557 128.004 14.4557C125.354 14.4557 123.21 16.5645 123.21 19.1694C123.21 21.7743 125.354 23.8831 128.004 23.8831C130.652 23.8831 132.798 21.7743 132.798 19.1694Z" fill="#E4210F" stroke="white" stroke-width="0.00299983"/>
<path id="Vector_8" d="M127.91 20.968C127.217 20.6579 126.649 20.1617 126.301 19.5105C125.577 18.2391 125.451 16.9676 125.797 15.8822C125.861 15.6341 125.608 15.479 125.419 15.6031C123.715 16.8435 122.959 19.2624 124.315 21.5573C124.693 22.2395 125.292 22.7356 125.987 23.0457C128.383 24.1 130.685 23.2008 131.789 21.4952C131.883 21.3401 131.726 21.1541 131.569 21.2161C130.496 21.5882 129.235 21.5882 127.91 20.968Z" fill="#F48372" fill-opacity="0.4"/>
<path id="Vector_9" fill-rule="evenodd" clip-rule="evenodd" d="M127.28 6.92049C127.28 8.47104 127.059 8.75013 129.015 9.06025C129.898 9.2153 130.56 9.40137 131.285 9.71147C134.534 10.9829 136.993 13.96 137.592 17.4022C137.94 19.4179 138.066 19.2008 139.8 19.2008C142.197 19.2008 140.21 10.7038 133.304 7.2306C132.768 6.98251 127.28 4.71872 127.28 6.92049Z" fill="white"/>
<path id="Vector_10" fill-rule="evenodd" clip-rule="evenodd" d="M127.279 1.18341C127.279 4.16046 128.319 2.20677 133.586 4.25349C137.464 5.77303 140.902 9.09118 142.447 12.9056C144.686 18.3635 142.51 19.2007 145.79 19.2007C148.282 19.2007 145.411 11.8822 144.939 10.9518C142.794 6.82739 140.177 4.09843 135.887 1.9897C135.352 1.7106 127.279 -1.76262 127.279 1.18341Z" fill="white"/>
</g>
<defs>
<clipPath id="clip0_2_8">
<rect width="146.865" height="52" fill="white"/>
</clipPath>
</defs>
</svg>
